<svg id="Calque_1" data-name="Calque 1" xmlns="http://www.w3.org/2000/svg" viewBox="0 0 151.15 169.14"><defs><style>.cls-1{fill:#fff;}.cls-2{fill:#27215b;}</style></defs><title>Objet dynamique vectoriel</title><path class="cls-1" d="M1530.5-354.57c5.19,0,6.72,2.6,8.84,6.19,2.28,3.88,5.13,8.7,13.09,8.7,7.78,0,10.81-4.79,13.24-8.63,2.3-3.64,4-6.26,9-6.26s6.71,2.6,8.83,6.19c2.28,3.88,5.13,8.7,13.09,8.7,7.78,0,10.81-4.79,13.24-8.63,2.3-3.64,4-6.26,9-6.26s6.71,2.6,8.83,6.19c2.29,3.88,5.13,8.7,13.09,8.7,7.78,0,10.81-4.79,13.24-8.63,2.3-3.64,4-6.26,9-6.26a2.75,2.75,0,0,0,2.74-2.75,2.74,2.74,0,0,0-2.74-2.74c-8.09,0-11.18,4.88-13.67,8.81-2.23,3.53-3.84,6.08-8.6,6.08s-6.23-2.39-8.36-6c-2.33-4-5.24-8.9-13.56-8.9-8.09,0-11.18,4.88-13.67,8.81-2.23,3.53-3.84,6.08-8.6,6.08s-6.23-2.39-8.36-6c-2.33-4-5.24-8.9-13.56-8.9-8.09,0-11.18,4.88-13.67,8.81-2.23,3.53-3.84,6.08-8.6,6.08s-6.23-2.39-8.36-6c-2.34-4-5.24-8.9-13.57-8.9a2.74,2.74,0,0,0-2.74,2.74A2.75,2.75,0,0,0,1530.5-354.57Z" transform="translate(-1523.33 360.06)"/><path class="cls-2" d="M1571.61-291.7c-1.57,0-2.65.2-5.5.2-3.74,0-6-.2-8.36-.2-1.18,0-1.68.3-1.68,1,0,2.06,5.61-.2,5.61,6.88,0,4.52-1.67,9.44-9.34,24.88l-10.23-24.68a6.73,6.73,0,0,1-.69-2.66c0-4.42,5.21-2.56,5.21-4.42,0-.79-.59-1-2.45-1-2.36,0-4.63.2-9.25.2-4,0-7.18-.2-9.93-.2-1.28,0-1.67.4-1.67,1,0,2.26,3.05-.2,5.5,5.31l17.12,38c.39.88.68,1.77,1.57,1.77s1.18-.89,1.57-1.77l16-33.44c4.53-9.44,8.36-8.26,8.36-9.83C1573.48-291.5,1572.79-291.7,1571.61-291.7Zm50.55,38.16c-1.18,0-2.06,3.44-5.5,3.44-1.38,0-1.87-1.28-1.87-2.46v-28.12c0-7.38-3.54-11.61-12-11.61-12.39,0-24.39,7.67-24.39,14.26a4.62,4.62,0,0,0,4.92,4.82c4.72,0,6.39-2.06,7.47-7.77,1.18-6,4.72-8.95,9.44-8.95,2.46,0,3.74,1.18,3.74,3.54v12.69c-17.21,5.31-27,10-27,18.88,0,5.61,4.33,8.75,10.43,8.75,6.59,0,12.19-3.73,16.91-7.08.89,4,2.17,7.08,8.36,7.08,5.51,0,10.53-4.82,10.53-6.68C1623.15-253.34,1622.75-253.54,1622.16-253.54ZM1604-255.7c-.2.68-5.9,5.7-10.82,5.7-4.23,0-5.41-4.62-5.41-8,0-7,6.89-10.42,16.23-13.76Zm51.43,4.22-13.47-.29c-6.1-.1-7.47-2.46-7.47-5.41,0-4.33,3.24-6,12.88-6.39,14.26-.69,18.59-7.77,18.59-14.95,0-7.67-6.1-12.78-18.49-13.77h-1.77c-10.23.4-17.7,5.9-17.7,14.66,0,8.06,5.11,12.09,12.68,13.37v.2c-6.19.39-13.47,3.93-13.47,11.7,0,4.13,1.57,7,4.62,8.85-4.72,1.18-7.08,3.54-7.08,6.69,0,4.92,5.41,10.82,20.46,10.82,19.47,0,25.07-5.51,25.07-13.58C1670.25-247.15,1665.43-251.28,1655.4-251.48ZM1638.78-278c0-7.67,2.07-12.49,8.17-12.49s8.16,4.82,8.16,12.69c0,7.67-2.07,12.49-8.16,12.49S1638.78-270.16,1638.78-278Zm7,50.26c-13.38,0-16.72-5.71-16.72-9.64a6.38,6.38,0,0,1,4-5.51c11.7,4.72,29.9-1.47,29.9,7.38C1663-230.82,1657.76-227.77,1645.77-227.77Zm-52.55-69.84c3.92-2.39,4.93-2.07,8.72-1.15,9.24,2.23,9.34-7.53,2.47-9.19s-12.06,7.37-12.06,7.37S1589.3-295.21,1593.22-297.61Z" transform="translate(-1523.33 360.06)"/><path d="M1534.38-199.34a1.85,1.85,0,0,0-.78-.69,2.61,2.61,0,0,0-1-.22,3.39,3.39,0,0,0-.77.1,2.15,2.15,0,0,0-.67.3,1.41,1.41,0,0,0-.49.51,1.55,1.55,0,0,0-.18.76,1.55,1.55,0,0,0,.11.59,1.18,1.18,0,0,0,.34.47,2.52,2.52,0,0,0,.64.39,6.92,6.92,0,0,0,1,.37q.57.18,1.11.39a3.77,3.77,0,0,1,.95.53,2.36,2.36,0,0,1,.66.81,2.69,2.69,0,0,1,.24,1.21,2.67,2.67,0,0,1-.29,1.29,2.71,2.71,0,0,1-.78.9,3.17,3.17,0,0,1-1.11.53,4.69,4.69,0,0,1-1.3.18,5.12,5.12,0,0,1-.87-.08,3.78,3.78,0,0,1-.83-.24,3.07,3.07,0,0,1-.75-.42,2.25,2.25,0,0,1-.6-.63l1-.83a2.18,2.18,0,0,0,.9.83,2.83,2.83,0,0,0,1.22.28,2.56,2.56,0,0,0,.76-.12,2,2,0,0,0,.69-.33,1.65,1.65,0,0,0,.51-.54,1.38,1.38,0,0,0,.19-.74,1.67,1.67,0,0,0-.15-.75,1.37,1.37,0,0,0-.47-.49,3.7,3.7,0,0,0-.82-.38l-1.14-.39a7.56,7.56,0,0,1-1-.39,3,3,0,0,1-.77-.53,2.28,2.28,0,0,1-.52-.76,2.56,2.56,0,0,1-.19-1,2.62,2.62,0,0,1,.28-1.25,2.71,2.71,0,0,1,.76-.89,3.27,3.27,0,0,1,1.07-.54,4.46,4.46,0,0,1,1.26-.18,4.44,4.44,0,0,1,1.54.26,3,3,0,0,1,1.24.9Z" transform="translate(-1523.33 360.06)"/><path d="M1543.48-201.09h1.11l4.21,9.92h-1.37l-1-2.44h-5l-1,2.44h-1.33Zm.53,1.52h0l-2,4.87h4Z" transform="translate(-1523.33 360.06)"/><path d="M1552.92-201.09h1.48l5.74,8.24h0v-8.24h1.17v9.92h-1.48l-5.74-8.24h0v8.24h-1.17Z" transform="translate(-1523.33 360.06)"/><path d="M1566-195h3.43v1H1566Z" transform="translate(-1523.33 360.06)"/><path d="M1574.07-201.09h6.15v1.1h-5v3.27h4.62v1.09h-4.62v4.46h-1.18Z" transform="translate(-1523.33 360.06)"/><path d="M1584.65-201.09h2.54a11.28,11.28,0,0,1,1.42.09,3.67,3.67,0,0,1,1.27.36,2.38,2.38,0,0,1,.91.82,2.69,2.69,0,0,1,.35,1.46,2.42,2.42,0,0,1-.66,1.77,3.14,3.14,0,0,1-1.82.85l2.81,4.57H1590l-2.69-4.46h-1.51v4.46h-1.18Zm1.18,4.37h1.05l1,0a3.56,3.56,0,0,0,1-.18,1.61,1.61,0,0,0,.73-.48,1.42,1.42,0,0,0,.29-1,1.53,1.53,0,0,0-.21-.85,1.42,1.42,0,0,0-.56-.5,2.57,2.57,0,0,0-.77-.23,6.11,6.11,0,0,0-.86-.05h-1.65Z" transform="translate(-1523.33 360.06)"/><path d="M1599.23-201.09h1.1l4.22,9.92h-1.37l-1-2.44h-5l-1,2.44h-1.33Zm.53,1.52h0l-2.06,4.87h4Z" transform="translate(-1523.33 360.06)"/><path d="M1608.66-201.09h1.49l5.74,8.24h0v-8.24h1.17v9.92h-1.48l-5.74-8.24h0v8.24h-1.18Z" transform="translate(-1523.33 360.06)"/><path d="M1629.3-199a2.87,2.87,0,0,0-1.11-.91,3.25,3.25,0,0,0-1.37-.3,3.49,3.49,0,0,0-1.52.34,3.64,3.64,0,0,0-1.19.9,4.18,4.18,0,0,0-.79,1.32,4.35,4.35,0,0,0-.28,1.56,4.52,4.52,0,0,0,.28,1.62,4.13,4.13,0,0,0,.78,1.3,3.56,3.56,0,0,0,1.19.87,3.5,3.5,0,0,0,1.53.33,3.59,3.59,0,0,0,1.63-.36,3.68,3.68,0,0,0,1.24-1l.88.74a4,4,0,0,1-1.61,1.32,5.21,5.21,0,0,1-2.14.42,5.08,5.08,0,0,1-2-.39,5.1,5.1,0,0,1-1.6-1.09,4.93,4.93,0,0,1-1.06-1.64,5.51,5.51,0,0,1-.39-2.09,5.69,5.69,0,0,1,.37-2,5,5,0,0,1,1-1.66,5,5,0,0,1,1.59-1.1,5,5,0,0,1,2-.41,5.15,5.15,0,0,1,1.94.37,3.49,3.49,0,0,1,1.56,1.19Z" transform="translate(-1523.33 360.06)"/><path d="M1635-201.09h1.18v9.92H1635Z" transform="translate(-1523.33 360.06)"/><path d="M1646.16-199.34a1.82,1.82,0,0,0-.79-.69,2.6,2.6,0,0,0-1-.22,3.32,3.32,0,0,0-.77.1,2.2,2.2,0,0,0-.68.3,1.47,1.47,0,0,0-.48.51,1.55,1.55,0,0,0-.18.76,1.55,1.55,0,0,0,.1.59,1.29,1.29,0,0,0,.34.47,2.59,2.59,0,0,0,.65.39,7.21,7.21,0,0,0,1,.37c.38.12.76.25,1.11.39a4,4,0,0,1,1,.53,2.45,2.45,0,0,1,.65.81,2.56,2.56,0,0,1,.25,1.21,2.79,2.79,0,0,1-.29,1.29,2.82,2.82,0,0,1-.78.9,3.17,3.17,0,0,1-1.11.53,4.76,4.76,0,0,1-1.31.18,4.91,4.91,0,0,1-.86-.08,4,4,0,0,1-.84-.24,3.49,3.49,0,0,1-.75-.42,2.58,2.58,0,0,1-.6-.63l1-.83a2.07,2.07,0,0,0,.9.83,2.79,2.79,0,0,0,1.21.28,2.58,2.58,0,0,0,.77-.12,2.2,2.2,0,0,0,.69-.33,1.62,1.62,0,0,0,.5-.54,1.39,1.39,0,0,0,.2-.74,1.67,1.67,0,0,0-.15-.75,1.49,1.49,0,0,0-.48-.49,3.83,3.83,0,0,0-.81-.38l-1.15-.39a7.41,7.41,0,0,1-1-.39,2.9,2.9,0,0,1-.78-.53,2.12,2.12,0,0,1-.51-.76,2.56,2.56,0,0,1-.19-1,2.62,2.62,0,0,1,.28-1.25,2.57,2.57,0,0,1,.75-.89,3.42,3.42,0,0,1,1.08-.54,4.36,4.36,0,0,1,1.26-.18,4.38,4.38,0,0,1,1.53.26,3,3,0,0,1,1.24.9Z" transform="translate(-1523.33 360.06)"/><path d="M1659-199a2.87,2.87,0,0,0-1.11-.91,3.25,3.25,0,0,0-1.37-.3,3.49,3.49,0,0,0-1.52.34,3.64,3.64,0,0,0-1.19.9,4.18,4.18,0,0,0-.79,1.32,4.35,4.35,0,0,0-.28,1.56,4.52,4.52,0,0,0,.28,1.62,4.13,4.13,0,0,0,.78,1.3,3.56,3.56,0,0,0,1.19.87,3.5,3.5,0,0,0,1.53.33,3.59,3.59,0,0,0,1.63-.36,3.68,3.68,0,0,0,1.24-1l.88.74a4,4,0,0,1-1.61,1.32,5.24,5.24,0,0,1-2.14.42,5.08,5.08,0,0,1-2-.39,5.1,5.1,0,0,1-1.6-1.09,4.93,4.93,0,0,1-1.06-1.64,5.51,5.51,0,0,1-.39-2.09,5.48,5.48,0,0,1,.37-2,5,5,0,0,1,1.05-1.66,5,5,0,0,1,1.59-1.1,5,5,0,0,1,2-.41,5.15,5.15,0,0,1,1.94.37,3.49,3.49,0,0,1,1.56,1.19Z" transform="translate(-1523.33 360.06)"/><path d="M1669.3-190.92a5.39,5.39,0,0,1-2.08-.39,5.17,5.17,0,0,1-1.64-1.09,4.92,4.92,0,0,1-1.08-1.65,5.66,5.66,0,0,1-.38-2.08,5.66,5.66,0,0,1,.38-2.08,4.92,4.92,0,0,1,1.08-1.65,5,5,0,0,1,1.64-1.09,5.39,5.39,0,0,1,2.08-.39,5.43,5.43,0,0,1,2.08.39,5,5,0,0,1,1.63,1.09,4.64,4.64,0,0,1,1.08,1.65,5.46,5.46,0,0,1,.39,2.08,5.46,5.46,0,0,1-.39,2.08,4.64,4.64,0,0,1-1.08,1.65,5.12,5.12,0,0,1-1.63,1.09A5.43,5.43,0,0,1,1669.3-190.92Zm0-1.09a3.77,3.77,0,0,0,1.59-.33,3.78,3.78,0,0,0,1.24-.88,4,4,0,0,0,.8-1.31,4.46,4.46,0,0,0,.29-1.6,4.46,4.46,0,0,0-.29-1.6,4,4,0,0,0-.8-1.31,3.64,3.64,0,0,0-1.24-.88,3.77,3.77,0,0,0-1.59-.33,3.77,3.77,0,0,0-1.59.33,3.64,3.64,0,0,0-1.24.88,4,4,0,0,0-.8,1.31,4.25,4.25,0,0,0-.29,1.6,4.25,4.25,0,0,0,.29,1.6,4,4,0,0,0,.8,1.31,3.78,3.78,0,0,0,1.24.88A3.77,3.77,0,0,0,1669.3-192Z" transform="translate(-1523.33 360.06)"/></svg>